<mxfile host="app.diagrams.net" modified="2022-01-10T20:13:37.077Z" agent="5.0 (X11)" etag="8oZhMcNjF2GGWbbvbojx" version="16.2.4" type="github">
  <diagram id="kgpKYQtTHZ0yAKxKKP6v" name="Page-1">
    <mxGraphModel dx="1422" dy="743" grid="1" gridSize="10" guides="1" tooltips="1" connect="1" arrows="1" fold="1" page="1" pageScale="1" pageWidth="850" pageHeight="1100" math="0" shadow="0">
      <root>
        <mxCell id="0" />
        <mxCell id="1" parent="0" />
        <mxCell id="JkG-OHluijORFLKhxo4q-13" style="edgeStyle=orthogonalEdgeStyle;rounded=0;orthogonalLoop=1;jettySize=auto;html=1;" edge="1" parent="1" source="JkG-OHluijORFLKhxo4q-1" target="JkG-OHluijORFLKhxo4q-10">
          <mxGeometry relative="1" as="geometry" />
        </mxCell>
        <mxCell id="JkG-OHluijORFLKhxo4q-14" style="edgeStyle=orthogonalEdgeStyle;rounded=0;orthogonalLoop=1;jettySize=auto;html=1;" edge="1" parent="1" source="JkG-OHluijORFLKhxo4q-1" target="JkG-OHluijORFLKhxo4q-11">
          <mxGeometry relative="1" as="geometry" />
        </mxCell>
        <mxCell id="JkG-OHluijORFLKhxo4q-1" value="&lt;div&gt;Database&lt;/div&gt;Cluster&lt;br&gt;Software" style="rounded=0;whiteSpace=wrap;html=1;" vertex="1" parent="1">
          <mxGeometry x="120" y="440" width="80" height="60" as="geometry" />
        </mxCell>
        <mxCell id="JkG-OHluijORFLKhxo4q-2" value="Chat Server" style="rounded=0;whiteSpace=wrap;html=1;" vertex="1" parent="1">
          <mxGeometry x="280" y="560" width="80" height="40" as="geometry" />
        </mxCell>
        <mxCell id="JkG-OHluijORFLKhxo4q-7" style="edgeStyle=orthogonalEdgeStyle;rounded=0;orthogonalLoop=1;jettySize=auto;html=1;" edge="1" parent="1" source="JkG-OHluijORFLKhxo4q-3" target="JkG-OHluijORFLKhxo4q-5">
          <mxGeometry relative="1" as="geometry" />
        </mxCell>
        <mxCell id="JkG-OHluijORFLKhxo4q-8" style="edgeStyle=orthogonalEdgeStyle;rounded=0;orthogonalLoop=1;jettySize=auto;html=1;" edge="1" parent="1" source="JkG-OHluijORFLKhxo4q-3" target="JkG-OHluijORFLKhxo4q-1">
          <mxGeometry relative="1" as="geometry" />
        </mxCell>
        <mxCell id="JkG-OHluijORFLKhxo4q-3" value="&lt;div&gt;Backend&lt;/div&gt;&lt;div&gt;(API Server)&lt;br&gt;&lt;/div&gt;" style="rounded=0;whiteSpace=wrap;html=1;" vertex="1" parent="1">
          <mxGeometry x="180" y="280" width="120" height="40" as="geometry" />
        </mxCell>
        <mxCell id="JkG-OHluijORFLKhxo4q-9" style="edgeStyle=orthogonalEdgeStyle;rounded=0;orthogonalLoop=1;jettySize=auto;html=1;" edge="1" parent="1" source="JkG-OHluijORFLKhxo4q-4" target="JkG-OHluijORFLKhxo4q-3">
          <mxGeometry relative="1" as="geometry" />
        </mxCell>
        <mxCell id="JkG-OHluijORFLKhxo4q-4" value="Frontend" style="rounded=0;whiteSpace=wrap;html=1;" vertex="1" parent="1">
          <mxGeometry x="180" y="160" width="120" height="40" as="geometry" />
        </mxCell>
        <mxCell id="JkG-OHluijORFLKhxo4q-6" style="edgeStyle=orthogonalEdgeStyle;rounded=0;orthogonalLoop=1;jettySize=auto;html=1;" edge="1" parent="1" source="JkG-OHluijORFLKhxo4q-5" target="JkG-OHluijORFLKhxo4q-2">
          <mxGeometry relative="1" as="geometry" />
        </mxCell>
        <mxCell id="JkG-OHluijORFLKhxo4q-5" value="Security Server Software" style="rounded=0;whiteSpace=wrap;html=1;" vertex="1" parent="1">
          <mxGeometry x="280" y="440" width="80" height="60" as="geometry" />
        </mxCell>
        <mxCell id="JkG-OHluijORFLKhxo4q-10" value="&lt;div&gt;Database 1&lt;/div&gt;" style="rounded=0;whiteSpace=wrap;html=1;" vertex="1" parent="1">
          <mxGeometry x="60" y="560" width="80" height="40" as="geometry" />
        </mxCell>
        <mxCell id="JkG-OHluijORFLKhxo4q-11" value="&lt;div&gt;Database 2&lt;/div&gt;" style="rounded=0;whiteSpace=wrap;html=1;" vertex="1" parent="1">
          <mxGeometry x="180" y="560" width="80" height="40" as="geometry" />
        </mxCell>
        <mxCell id="JkG-OHluijORFLKhxo4q-15" value="" style="rounded=0;whiteSpace=wrap;html=1;fillColor=none;" vertex="1" parent="1">
          <mxGeometry x="80" y="120" width="320" height="400" as="geometry" />
        </mxCell>
        <mxCell id="JkG-OHluijORFLKhxo4q-16" value="C#" style="text;html=1;strokeColor=none;fillColor=none;align=center;verticalAlign=middle;whiteSpace=wrap;rounded=0;" vertex="1" parent="1">
          <mxGeometry x="210" y="90" width="60" height="30" as="geometry" />
        </mxCell>
        <mxCell id="JkG-OHluijORFLKhxo4q-17" value="MySQL" style="text;html=1;strokeColor=none;fillColor=none;align=center;verticalAlign=middle;whiteSpace=wrap;rounded=0;" vertex="1" parent="1">
          <mxGeometry x="70" y="600" width="60" height="30" as="geometry" />
        </mxCell>
        <mxCell id="JkG-OHluijORFLKhxo4q-18" value="MongoDB" style="text;html=1;strokeColor=none;fillColor=none;align=center;verticalAlign=middle;whiteSpace=wrap;rounded=0;" vertex="1" parent="1">
          <mxGeometry x="190" y="600" width="60" height="30" as="geometry" />
        </mxCell>
        <mxCell id="JkG-OHluijORFLKhxo4q-19" value="IRC" style="text;html=1;strokeColor=none;fillColor=none;align=center;verticalAlign=middle;whiteSpace=wrap;rounded=0;" vertex="1" parent="1">
          <mxGeometry x="290" y="600" width="60" height="30" as="geometry" />
        </mxCell>
      </root>
    </mxGraphModel>
  </diagram>
</mxfile>
